<svg width="17" height="20" viewBox="0 0 17 20" fill="none" xmlns="http://www.w3.org/2000/svg">
<path fill-rule="evenodd" clip-rule="evenodd" d="M4.50001 1C4.50001 0.734784 4.60536 0.48043 4.7929 0.292893C4.98044 0.105357 5.23479 0 5.50001 0H13.5C14.2957 0 15.0587 0.316071 15.6213 0.87868C16.1839 1.44129 16.5 2.20435 16.5 3V17C16.5 17.7956 16.1839 18.5587 15.6213 19.1213C15.0587 19.6839 14.2957 20 13.5 20H5.50001C5.23479 20 4.98044 19.8946 4.7929 19.7071C4.60536 19.5196 4.50001 19.2652 4.50001 19C4.50001 18.7348 4.60536 18.4804 4.7929 18.2929C4.98044 18.1054 5.23479 18 5.50001 18H13.5C13.7652 18 14.0196 17.8946 14.2071 17.7071C14.3946 17.5196 14.5 17.2652 14.5 17V3C14.5 2.73478 14.3946 2.48043 14.2071 2.29289C14.0196 2.10536 13.7652 2 13.5 2H5.50001C5.23479 2 4.98044 1.89464 4.7929 1.70711C4.60536 1.51957 4.50001 1.26522 4.50001 1ZM6.79301 5.293C6.9652 5.12082 7.1943 5.01739 7.43732 5.00211C7.68035 4.98683 7.9206 5.06075 8.11301 5.21L8.20701 5.293L12.207 9.293C12.3792 9.46519 12.4826 9.69429 12.4979 9.93732C12.5132 10.1803 12.4393 10.4206 12.29 10.613L12.207 10.707L8.20701 14.707C8.02705 14.8863 7.78557 14.9905 7.53162 14.9982C7.27767 15.006 7.03029 14.9168 6.83973 14.7488C6.64916 14.5807 6.5297 14.3464 6.50561 14.0935C6.48151 13.8406 6.55459 13.588 6.71001 13.387L6.79301 13.293L9.085 11H1.50001C1.24513 10.9997 0.999973 10.9021 0.814637 10.7272C0.629301 10.5522 0.517771 10.313 0.502834 10.0586C0.487897 9.80416 0.57068 9.55362 0.734271 9.35817C0.897861 9.16271 1.12991 9.0371 1.38301 9.007L1.50001 9H9.085L6.79301 6.707C6.62083 6.53481 6.5174 6.30571 6.50212 6.06268C6.48684 5.81965 6.56075 5.5794 6.71001 5.387L6.79301 5.293Z" fill="#162136"/>
</svg>
