<svg width="19" height="22" viewBox="0 0 19 22" fill="none" xmlns="http://www.w3.org/2000/svg">
<path d="M9.49988 2C5.63988 2 2.49988 4.964 2.49988 8.609C2.49198 9.96235 2.92712 11.2811 3.73888 12.364L9.55488 19C11.0799 17.266 14.1199 13.791 15.2679 12.357C16.0739 11.35 16.4999 10.053 16.4999 8.61C16.4999 4.964 13.3599 2 9.49988 2ZM9.54988 22C9.22488 21.962 8.89688 21.854 8.68288 21.6L2.16988 13.9C1.08037 12.4232 0.494858 10.6352 0.499879 8.8C0.499879 3.948 4.53788 0 9.49988 0C14.4619 0 18.4999 3.948 18.4999 8.8C18.4999 10.725 17.9319 12.477 16.8579 13.869C15.3299 15.848 10.6139 21.371 10.4139 21.605C10.2009 21.855 9.88288 22 9.54988 22ZM9.49988 6C7.84488 6 6.49988 7.345 6.49988 9C6.49988 10.655 7.84488 12 9.49988 12C11.1549 12 12.4999 10.655 12.4999 9C12.4999 7.345 11.1549 6 9.49988 6ZM9.49988 14C6.74388 14 4.49988 11.758 4.49988 9C4.49988 6.244 6.74388 4 9.49988 4C12.2579 4 14.4999 6.244 14.4999 9C14.4999 11.758 12.2579 14 9.49988 14Z" fill="#162136"/>
</svg>
