<svg width="24" height="19" viewBox="0 0 24 19" fill="none" xmlns="http://www.w3.org/2000/svg">
<path d="M23.766 2.25994C22.9067 2.64528 21.994 2.89847 21.059 3.01094C22.0462 2.40938 22.782 1.4704 23.13 0.367944C22.205 0.923136 21.1917 1.3155 20.134 1.52794C19.6963 1.05193 19.1646 0.671946 18.5724 0.412028C17.9803 0.152111 17.3407 0.0179194 16.694 0.0179443C14.09 0.0179443 11.977 2.15894 11.977 4.79694C11.977 5.17194 12.02 5.53694 12.099 5.88694C8.179 5.68594 4.704 3.78394 2.378 0.890944C1.95925 1.62326 1.73931 2.45236 1.74 3.29594C1.74 4.95494 2.605 6.41494 3.872 7.27294C3.097 7.24794 2.766 7.03194 1.766 6.67494V6.73695C1.766 9.05095 3.359 10.9819 5.516 11.4209C5.10596 11.5324 4.68292 11.5889 4.258 11.5889C3.9572 11.5894 3.65709 11.5602 3.362 11.5019C3.963 13.4019 5.701 14.7839 7.763 14.8209C6.09897 16.1476 4.03315 16.8688 1.905 16.8659C1.52911 16.8662 1.15351 16.8452 0.779999 16.8029C2.93003 18.2045 5.44147 18.9502 8.008 18.9489C16.684 18.9489 21.426 11.6679 21.426 5.35294C21.426 5.14494 21.422 4.93994 21.412 4.73494C22.3361 4.05475 23.1329 3.21692 23.766 2.25994Z" fill="#687082"/>
</svg>
